<svg xmlns="http://www.w3.org/2000/svg" width="14" height="16"><path d="M5 1v1h4V1a1 1 0 112 0v1h1.5A1.5 1.5 0 0114 3.5V5H0V3.5A1.5 1.5 0 011.5 2H3V1a1 1 0 112 0zM0 6h14v8.5a1.5 1.5 0 01-1.5 1.5h-11A1.5 1.5 0 010 14.5zm2 3.5c0 .273.223.5.5.5h1c.273 0 .5-.227.5-.5v-1c0-.273-.227-.5-.5-.5h-1c-.277 0-.5.227-.5.5zm4 0c0 .273.227.5.5.5h1c.273 0 .5-.227.5-.5v-1c0-.273-.227-.5-.5-.5h-1c-.273 0-.5.227-.5.5zM10.5 8c-.273 0-.5.227-.5.5v1c0 .273.227.5.5.5h1c.273 0 .5-.227.5-.5v-1c0-.273-.227-.5-.5-.5zM2 13.5c0 .273.223.5.5.5h1c.273 0 .5-.227.5-.5v-1c0-.273-.227-.5-.5-.5h-1c-.277 0-.5.227-.5.5zM6.5 12c-.273 0-.5.227-.5.5v1c0 .273.227.5.5.5h1c.273 0 .5-.227.5-.5v-1c0-.273-.227-.5-.5-.5zm3.5 1.5c0 .273.227.5.5.5h1c.273 0 .5-.227.5-.5v-1c0-.273-.227-.5-.5-.5h-1c-.273 0-.5.227-.5.5zm0 0" fill="#fff" id="surface1"/></svg>