<svg xmlns="http://www.w3.org/2000/svg" id="body_1" width="12" height="9"><path d="M22.617 15.453a.412.412 0 00-.41.418v4.133c0 .598-.473 1.078-1.059 1.082H1.878a1.071 1.071 0 01-1.054-1.082v-5.957h13.364a.42.42 0 00.414-.422.418.418 0 00-.415-.422H.825V10.47h4.832a.405.405 0 00.407-.414.409.409 0 00-.407-.418H.824V8.195A1.072 1.072 0 011.88 7.11h12.308c.227 0 .41-.187.41-.418a.414.414 0 00-.41-.418H1.88C.844 6.277.004 7.137.004 8.195v11.809c.004 1.058.84 1.914 1.875 1.918h19.27c1.035-.004 1.874-.86 1.874-1.918V15.87a.389.389 0 00-.117-.293.402.402 0 00-.289-.125zm-8.43-5.816H7.223a.414.414 0 00-.407.418.414.414 0 00.407.414h6.965a.414.414 0 00.414-.414.418.418 0 00-.415-.418zm-4.523 5.777H2.676a.414.414 0 00-.41.418c0 .23.183.418.41.418h6.988c.227 0 .41-.188.41-.418a.414.414 0 00-.41-.418zM6.688 17.41H2.676a.414.414 0 00-.41.418c0 .23.183.418.41.418h4.011a.414.414 0 00.407-.418.414.414 0 00-.407-.418zm16.96-6.805c.11 0 .215-.043.29-.12a.432.432 0 00.12-.301V7.8c0-.715-.488-1.332-1.171-1.485v-3.01A3.314 3.314 0 0021.309.34a3.18 3.18 0 00-3.305 0 3.32 3.32 0 00-1.574 2.965v3.011a1.512 1.512 0 00-1.176 1.485v5.375c0 .84.664 1.52 1.488 1.52h5.828c.82 0 1.489-.68 1.489-1.52v-1.598a.411.411 0 00-.41-.414.41.41 0 00-.407.414v1.598a.685.685 0 01-.672.683h-5.828a.682.682 0 01-.672-.683V7.8a.685.685 0 01.672-.688h5.828a.688.688 0 01.672.688v2.383a.397.397 0 00.117.296.39.39 0 00.29.125zm-1.582-4.324h-4.82V3.305c0-1.36 1.078-2.461 2.41-2.461s2.41 1.101 2.41 2.46zm-2.41 2.16c-.758 0-1.398.57-1.5 1.336a1.549 1.549 0 001.094 1.7v1.02a.41.41 0 00.406.417c.11 0 .215-.043.29-.121a.423.423 0 00.12-.297v-1.02a1.548 1.548 0 001.086-1.703 1.522 1.522 0 00-1.496-1.332zm0 2.258a.701.701 0 01-.699-.71.706.706 0 01.695-.716c.383 0 .7.317.7.711a.706.706 0 01-.696.715z" fill="#A3BBC8" transform="matrix(.40892 0 0 .4091 1.093 0)"/></svg>