<svg xmlns="http://www.w3.org/2000/svg" width="14" height="14"><path d="M6.918 7.047A2.667 2.667 0 014.242 4.37a2.67 2.67 0 012.676-2.676A2.672 2.672 0 019.594 4.37a2.67 2.67 0 01-2.676 2.676zm0-4.527a1.846 1.846 0 00-1.856 1.85c0 1.031.825 1.856 1.856 1.856A1.846 1.846 0 008.77 4.37a1.846 1.846 0 00-1.852-1.85zM3.293 10.3v1.778c0 .207-.824.207-.824 0v-1.777c0-1.625 2-2.883 4.531-2.883 2.531 0 4.531 1.258 4.531 2.883v1.777c0 .207-.824.207-.824 0v-1.777c0-1.11-1.687-2.059-3.707-2.059-2.02 0-3.707.95-3.707 2.059zm0 0" id="surface1" fill="#fff"/></svg>