<?xml version="1.0" encoding="UTF-8"?>
<svg xmlns="http://www.w3.org/2000/svg" xmlns:xlink="http://www.w3.org/1999/xlink" width="15px" height="15px" viewBox="0 0 15 15" version="1.1">
<g id="surface1">
<path style=" stroke:none;fill-rule:nonzero;fill:rgb(0%,0%,0%);fill-opacity:1;" d="M 14.726562 8.164062 L 10.976562 11.914062 C 10.609375 12.277344 10.015625 12.277344 9.648438 11.914062 C 9.28125 11.546875 9.28125 10.953125 9.648438 10.585938 L 11.800781 8.4375 L 0.9375 8.4375 C 0.417969 8.4375 0 8.019531 0 7.472656 C 0 6.929688 0.417969 6.5625 0.9375 6.5625 L 11.800781 6.5625 L 9.652344 4.414062 C 9.285156 4.046875 9.285156 3.453125 9.652344 3.085938 C 10.015625 2.722656 10.609375 2.722656 10.976562 3.085938 L 14.726562 6.835938 C 15.089844 7.203125 15.089844 7.796875 14.726562 8.164062 Z M 14.726562 8.164062 "/>
</g>
</svg>
