<?xml version="1.0" standalone="no"?>
<!DOCTYPE svg PUBLIC "-//W3C//DTD SVG 1.0//EN" "http://www.w3.org/TR/2001/REC-SVG-20010904/DTD/svg10.dtd">
<svg xmlns="http://www.w3.org/2000/svg" xmlns:xlink="http://www.w3.org/1999/xlink" id="body_1" width="12" height="9">

<g transform="matrix(0.3 0 0 0.3 0 0)">
	<g transform="matrix(0.4938272 0 0 0.4918033 0 0)">
		<g transform="matrix(0.09890111 0 0 0.09934854 0 0)">
			<g transform="matrix(27.909092 0 0 27.909092 74.59093 -0)">
				<g>
                    <path d="M22.617188 15.453125C 22.511719 15.453125 22.40625 15.496094 22.328125 15.574219C 22.25 15.652344 22.207031 15.757812 22.207031 15.871094L22.207031 15.871094L22.207031 20.003906C 22.207031 20.601562 21.734375 21.082031 21.148438 21.085938L21.148438 21.085938L1.878906 21.085938C 1.296875 21.082031 0.824219 20.601562 0.824219 20.003906L0.824219 20.003906L0.824219 14.046875L14.1875 14.046875C 14.417969 14.046875 14.601562 13.855469 14.601562 13.625C 14.601562 13.394531 14.417969 13.203125 14.1875 13.203125L14.1875 13.203125L0.824219 13.203125L0.824219 10.46875L5.65625 10.46875C 5.765625 10.46875 5.867188 10.425781 5.945312 10.347656C 6.019531 10.269531 6.0625 10.164062 6.0625 10.054688C 6.066406 9.824219 5.882812 9.636719 5.65625 9.636719L5.65625 9.636719L0.824219 9.636719L0.824219 8.195312C 0.820312 7.597656 1.296875 7.113281 1.878906 7.109375L1.878906 7.109375L14.1875 7.109375C 14.414062 7.109375 14.597656 6.921875 14.597656 6.691406C 14.597656 6.460938 14.414062 6.273438 14.1875 6.273438L14.1875 6.273438L1.878906 6.273438C 0.84375 6.277344 0.00390625 7.136719 0.00390625 8.195312L0.00390625 8.195312L0.00390625 20.003906C 0.0078125 21.0625 0.84375 21.917969 1.878906 21.921875L1.878906 21.921875L21.148438 21.921875C 22.183594 21.917969 23.023438 21.0625 23.023438 20.003906L23.023438 20.003906L23.023438 15.871094C 23.027344 15.761719 22.984375 15.652344 22.90625 15.578125C 22.832031 15.5 22.726562 15.453125 22.617188 15.453125zM14.1875 9.636719L7.222656 9.636719C 7 9.636719 6.816406 9.824219 6.816406 10.054688C 6.816406 10.164062 6.859375 10.269531 6.9375 10.347656C 7.011719 10.425781 7.117188 10.46875 7.222656 10.46875L7.222656 10.46875L14.1875 10.46875C 14.414062 10.472656 14.597656 10.285156 14.601562 10.054688C 14.597656 9.824219 14.417969 9.636719 14.1875 9.636719zM9.664062 15.414062L2.675781 15.414062C 2.449219 15.414062 2.265625 15.601562 2.265625 15.832031C 2.265625 16.0625 2.449219 16.25 2.675781 16.25L2.675781 16.25L9.664062 16.25C 9.890625 16.25 10.074219 16.0625 10.074219 15.832031C 10.074219 15.601562 9.890625 15.414062 9.664062 15.414062zM6.6875 17.410156L2.675781 17.410156C 2.449219 17.410156 2.265625 17.597656 2.265625 17.828125C 2.265625 18.058594 2.449219 18.246094 2.675781 18.246094L2.675781 18.246094L6.6875 18.246094C 6.910156 18.246094 7.09375 18.058594 7.09375 17.828125C 7.09375 17.597656 6.910156 17.410156 6.6875 17.410156zM23.648438 10.605469C 23.757812 10.605469 23.863281 10.5625 23.9375 10.484375C 24.015625 10.402344 24.058594 10.296875 24.058594 10.183594L24.058594 10.183594L24.058594 7.800781C 24.058594 7.085938 23.570312 6.46875 22.886719 6.316406L22.886719 6.316406L22.886719 3.304688C 22.933594 2.097656 22.328125 0.957031 21.308594 0.339844C 20.292969 -0.277344 19.023438 -0.277344 18.003906 0.339844C 16.988281 0.957031 16.382812 2.097656 16.429688 3.304688L16.429688 3.304688L16.429688 6.316406C 15.742188 6.46875 15.253906 7.085938 15.253906 7.800781L15.253906 7.800781L15.253906 13.175781C 15.253906 14.015625 15.917969 14.695312 16.742188 14.695312L16.742188 14.695312L22.570312 14.695312C 23.390625 14.695312 24.058594 14.015625 24.058594 13.175781L24.058594 13.175781L24.058594 11.578125C 24.058594 11.347656 23.875 11.164062 23.648438 11.164062C 23.425781 11.164062 23.242188 11.347656 23.242188 11.578125L23.242188 11.578125L23.242188 13.175781C 23.238281 13.550781 22.9375 13.859375 22.570312 13.859375L22.570312 13.859375L16.742188 13.859375C 16.371094 13.859375 16.074219 13.550781 16.070312 13.175781L16.070312 13.175781L16.070312 7.800781C 16.074219 7.421875 16.371094 7.117188 16.742188 7.113281L16.742188 7.113281L22.570312 7.113281C 22.9375 7.117188 23.238281 7.421875 23.242188 7.800781L23.242188 7.800781L23.242188 10.183594C 23.238281 10.296875 23.28125 10.402344 23.359375 10.480469C 23.433594 10.5625 23.539062 10.605469 23.648438 10.605469zM22.066406 6.28125L17.246094 6.28125L17.246094 3.304688C 17.246094 1.945312 18.324219 0.84375 19.65625 0.84375C 20.988281 0.84375 22.066406 1.945312 22.066406 3.304688zM19.65625 8.441406C 18.898438 8.441406 18.257812 9.011719 18.15625 9.777344C 18.054688 10.542969 18.519531 11.265625 19.25 11.476562L19.25 11.476562L19.25 12.496094C 19.246094 12.605469 19.289062 12.710938 19.367188 12.792969C 19.441406 12.871094 19.546875 12.914062 19.65625 12.914062C 19.765625 12.914062 19.871094 12.871094 19.945312 12.792969C 20.023438 12.714844 20.066406 12.605469 20.066406 12.496094L20.066406 12.496094L20.066406 11.476562C 20.792969 11.265625 21.257812 10.539062 21.152344 9.773438C 21.050781 9.011719 20.410156 8.441406 19.65625 8.441406zM19.65625 10.699219C 19.269531 10.703125 18.957031 10.382812 18.957031 9.988281C 18.953125 9.597656 19.265625 9.277344 19.652344 9.273438C 20.035156 9.273438 20.351562 9.589844 20.351562 9.984375C 20.351562 10.378906 20.039062 10.699219 19.65625 10.699219z" stroke="none" fill="#A3BBC8" fill-rule="nonzero" />
				</g>
			</g>
		</g>
	</g>
</g>
</svg>