<?xml version="1.0" encoding="UTF-8"?>
<svg xmlns="http://www.w3.org/2000/svg" xmlns:xlink="http://www.w3.org/1999/xlink" width="14px" height="14px" viewBox="0 0 14 14" version="1.1">
<g id="surface1">
<path style=" stroke:none;fill-rule:nonzero;fill:#fff;fill-opacity:1;" d="M 6.917969 7.046875 C 5.433594 7.046875 4.242188 5.855469 4.242188 4.371094 C 4.242188 2.890625 5.433594 1.695312 6.917969 1.695312 C 8.398438 1.695312 9.59375 2.890625 9.59375 4.371094 C 9.59375 5.855469 8.398438 7.046875 6.917969 7.046875 Z M 6.917969 2.519531 C 5.886719 2.519531 5.0625 3.34375 5.0625 4.371094 C 5.0625 5.402344 5.886719 6.226562 6.917969 6.226562 C 7.945312 6.226562 8.769531 5.402344 8.769531 4.371094 C 8.769531 3.34375 7.945312 2.519531 6.917969 2.519531 Z M 6.917969 2.519531 "/>
<path style=" stroke:none;fill-rule:nonzero;fill:#fff;fill-opacity:1;" d="M 3.292969 10.300781 L 3.292969 12.078125 C 3.292969 12.285156 2.46875 12.285156 2.46875 12.078125 L 2.46875 10.300781 C 2.46875 8.675781 4.46875 7.417969 7 7.417969 C 9.53125 7.417969 11.53125 8.675781 11.53125 10.300781 L 11.53125 12.078125 C 11.53125 12.285156 10.707031 12.285156 10.707031 12.078125 L 10.707031 10.300781 C 10.707031 9.191406 9.019531 8.242188 7 8.242188 C 4.980469 8.242188 3.292969 9.191406 3.292969 10.300781 Z M 3.292969 10.300781 "/>
</g>
</svg>
